# xmcd
# 
# Track frame offsets:
#     150
#     23492
#     37057
#     49571
#     64368
#     72235
#     91597
#     106793
#     117029
#     122192
#     130416
#     140564
#     159254
# 
# Disc length: 2350
# 
# Revision: 17
# Processed by: cddbd v1.5.2PL0 Copyright (c) Steve Scherf et al.
# Submitted via: fre:ac v1.0.31
# 
DISCID=aa092c0d
DTITLE=Queen - Sheer Heart Attack
DYEAR=1974
DGENRE=Rock/Pop
TTITLE0=Brighton Rock
TTITLE1=Killer Queen
TTITLE2=Tenement Funster
TTITLE3=Flick of the Wrist
TTITLE4=Lily of the Valley
TTITLE5=Now I'm Here
TTITLE6=In the Lap of the Gods
TTITLE7=Stone Cold Crazy
TTITLE8=Dear Friends
TTITLE9=Misfire
TTITLE10=Bring Back that Leroy Brown
TTITLE11=She Makes Me (Stormtrooper in Stilettos)
TTITLE12=In the Lap of the Gods... Revisited
EXTD=
EXTT0=
EXTT1=
EXTT2=
EXTT3=
EXTT4=
EXTT5=
EXTT6=
EXTT7=
EXTT8=
EXTT9=
EXTT10=
EXTT11=
EXTT12=
PLAYORDER=
